<svg width="48" height="49" viewBox="0 0 48 49" fill="none" xmlns="http://www.w3.org/2000/svg">
<path fill-rule="evenodd" clip-rule="evenodd" d="M47.9961 14.0813C47.914 14.9553 47.4625 15.7045 46.8056 16.2039L41.6332 19.8664C43.111 21.3647 43.111 23.8202 41.6332 25.3602C40.8942 26.1093 39.909 26.4839 38.9648 26.4839C38.3901 26.4839 37.7743 26.359 37.2407 26.0677C35.886 27.8989 31.945 33.2262 25.4589 39.8437C23.0368 42.2993 20.4506 44.7132 17.7001 46.919C15.976 48.3341 13.8824 49 11.7477 49C8.87408 49 5.87732 47.7514 3.53739 45.3791C-0.52671 41.2172 -1.18353 34.9743 2.05953 30.8955C4.23526 28.1487 6.5752 25.485 8.99723 22.9879C15.4834 16.3287 20.6969 12.3333 22.5442 11.0015C21.8053 9.54478 22.0516 7.71353 23.2421 6.50656C24.7199 5.00826 27.142 5.00826 28.6198 6.50656L32.1503 1.26251C32.6429 0.554983 33.3818 0.0971696 34.2028 0.0139308C35.0239 -0.0693081 35.8449 0.222028 36.4607 0.846319L47.1751 11.7922C47.7498 12.3749 48.0372 13.2073 47.9961 14.0813ZM27.4293 7.71353C26.5673 6.83952 25.2126 6.83952 24.3915 7.71353C23.5295 8.58753 23.5295 9.96097 24.3915 10.835L31.165 17.827C31.4934 18.16 31.4934 18.7011 31.165 18.9924C30.8366 19.3253 30.344 19.3253 30.0156 18.9924L23.5295 12.3333C21.8463 13.5819 16.6739 17.5357 10.1467 24.1948C9.65406 24.6943 9.16144 25.1937 8.70987 25.6931C11.173 26.8585 14.4571 26.1509 17.8644 25.3602C22.5853 24.3197 27.922 23.1127 31.9861 26.9833C32.3145 27.3163 32.3145 27.8157 32.0271 28.1487C31.8629 28.3151 31.6576 28.3984 31.4113 28.3984C31.2061 28.3984 31.0008 28.3151 30.8366 28.1903C27.3883 24.9023 22.7084 25.9428 18.1928 26.9833C14.416 27.8157 10.5572 28.6897 7.51938 26.9417C6.04153 28.5649 4.64578 30.2296 3.29108 31.936C0.58168 35.3488 1.19745 40.6345 4.68683 44.2138C8.1762 47.793 13.3487 48.3757 16.7149 45.6288C19.3833 43.423 21.9284 41.0923 24.3505 38.6368C30.8777 31.9777 34.7365 26.692 35.9681 24.944L33.0534 21.989C32.725 21.656 32.725 21.115 33.0534 20.8236C33.3818 20.4907 33.8744 20.4907 34.2028 20.8236L37.4049 24.1116C38.2669 24.9856 39.6216 24.9856 40.4427 24.1116C41.3047 23.2376 41.3047 21.8641 40.4427 20.9901L27.4293 7.71353ZM46.0257 12.9576L35.3112 2.05328C35.0649 1.80357 34.6955 1.67871 34.3671 1.67871C33.9976 1.72033 33.7102 1.88681 33.505 2.17814L29.7693 7.71353L40.4427 18.6178L45.8615 14.7888C46.1488 14.5807 46.3541 14.2478 46.3541 13.9148C46.3951 13.5819 46.272 13.2073 46.0257 12.9576ZM25.3357 29.7302C24.8842 29.7302 24.5147 29.3556 24.5147 28.8978C24.5147 28.44 24.8842 28.0654 25.3357 28.0654C25.7873 28.0654 26.1568 28.44 26.1568 28.8978C26.1568 29.3556 25.7873 29.7302 25.3357 29.7302ZM20.6969 35.5153C20.2453 35.5153 19.8759 35.1407 19.8759 34.6829C19.8759 34.2251 20.2453 33.8505 20.6969 33.8505C21.1485 33.8505 21.5179 34.2251 21.5179 34.6829C21.4769 35.1407 21.1485 35.5153 20.6969 35.5153ZM15.4834 42.8819C15.0318 42.8819 14.6623 42.5074 14.6623 42.0496C14.6623 41.5917 15.0318 41.2172 15.4834 41.2172C15.9349 41.2172 16.3044 41.5917 16.3044 42.0496C16.3044 42.5074 15.9349 42.8819 15.4834 42.8819ZM15.0318 32.1858C14.5802 32.1858 14.2108 31.8112 14.2108 31.3534C14.2108 30.8955 14.5802 30.521 15.0318 30.521C15.4834 30.521 15.8528 30.8955 15.8528 31.3534C15.8528 31.8112 15.4834 32.1858 15.0318 32.1858ZM13.1024 38.6368C12.6508 38.6368 12.2814 38.2622 12.2814 37.8044C12.2814 37.3466 12.6508 36.972 13.1024 36.972C13.5539 36.972 13.9234 37.3466 13.9234 37.8044C13.9234 38.2622 13.5539 38.6368 13.1024 38.6368ZM8.1762 34.6829C7.72464 34.6829 7.35517 34.3083 7.35517 33.8505C7.35517 33.3927 7.72464 33.0181 8.1762 33.0181C8.62777 33.0181 8.99723 33.3927 8.99723 33.8505C8.99723 34.3083 8.62777 34.6829 8.1762 34.6829ZM6.24678 40.3432C5.79522 40.3432 5.42575 39.9686 5.42575 39.5108C5.42575 39.053 5.79522 38.6784 6.24678 38.6784C6.69835 38.6784 7.06781 39.053 7.06781 39.5108C7.06781 39.9686 6.69835 40.3432 6.24678 40.3432Z" fill="url(#paint0_linear_401_217)"/>
<defs>
<linearGradient id="paint0_linear_401_217" x1="24" y1="0" x2="24" y2="49" gradientUnits="userSpaceOnUse">
<stop offset="0.0625" stop-color="#FFC46C"/>
<stop offset="1" stop-color="#E07F2E"/>
</linearGradient>
</defs>
</svg>
