<svg width="252" height="60" viewBox="0 0 252 60" fill="none" xmlns="http://www.w3.org/2000/svg">
<path fill-rule="evenodd" clip-rule="evenodd" d="M82.7027 26.5129H78.5967V11.3514H76.2162V29.1892H82.7027V26.5129Z" fill="#EAE2C1"/>
<path fill-rule="evenodd" clip-rule="evenodd" d="M94.0611 15.4372L95.0581 22.4698H93.0635L94.0611 15.4372ZM92.647 25.089H95.458L96.088 29.1892H98.9189L95.9277 11.3514H92.2238L89.1892 29.1892H91.9925L92.647 25.089Z" fill="#EAE2C1"/>
<path fill-rule="evenodd" clip-rule="evenodd" d="M107.196 28.4255C107.827 28.9348 108.623 29.1892 109.582 29.1892C110.101 29.1892 110.555 29.125 110.944 28.995C111.671 28.7541 112.233 28.3423 112.631 27.7583C113.236 26.897 113.53 25.86 113.513 24.6462C113.504 24.1558 113.383 23.6002 113.149 22.9794C113.054 22.7295 112.929 22.4561 112.773 22.1594C112.445 21.5301 111.977 20.8909 111.373 20.2426C111.19 20.039 110.814 19.6825 110.244 19.1727C109.759 18.7471 109.396 18.3762 109.154 18.0615C108.514 17.2371 108.194 16.427 108.194 15.6305C108.194 15.1212 108.289 14.695 108.48 14.3525C108.713 13.9263 109.054 13.7127 109.504 13.7127C109.928 13.7127 110.252 13.8571 110.477 14.1439C110.789 14.5421 110.978 15.0978 111.048 15.8107L113.396 15.3522C113.335 14.5929 113.156 13.9213 112.857 13.3378C112.559 12.7543 112.168 12.3008 111.684 11.9762C111.061 11.5595 110.313 11.3514 109.439 11.3514C108.531 11.3514 107.771 11.5968 107.156 12.0882C106.162 12.9037 105.665 14.1045 105.665 15.6897C105.665 16.5704 105.847 17.3859 106.21 18.1372C106.547 18.8048 107.122 19.5601 107.935 20.4034C108.903 21.3867 109.63 22.1236 110.114 22.6144C110.728 23.3284 111.035 24.0468 111.035 24.7697C111.035 25.2705 110.953 25.6549 110.789 25.9237C110.469 26.4709 110.04 26.7537 109.504 26.7721C109.124 26.791 108.787 26.6277 108.492 26.2832C108.095 25.8271 107.844 25.0918 107.74 24.0767L105.405 24.2579C105.457 25.1839 105.636 26.0059 105.944 26.7233C106.25 27.4412 106.668 28.0083 107.196 28.4255Z" fill="#EAE2C1"/>
<path fill-rule="evenodd" clip-rule="evenodd" d="M122.762 29.1892H125.359V14.0562H128.108V11.3514H120V14.0562H122.762V29.1892Z" fill="#EAE2C1"/>
<path fill-rule="evenodd" clip-rule="evenodd" d="M83.1255 47.6636L79.3826 35.6757H76.2162V53.5135H79.0366V42.0909L82.9164 53.5135H85.9459V35.6757H83.1255V47.6636Z" fill="#EAE2C1"/>
<path fill-rule="evenodd" clip-rule="evenodd" d="M92.4324 53.5135H100.541V50.8108H95.281V45.9462H99.1238V43.243H95.281V38.3784H100.541V35.6757H92.4324V53.5135Z" fill="#EAE2C1"/>
<path fill-rule="evenodd" clip-rule="evenodd" d="M109.28 46.7942L110.277 39.7616L111.274 46.7942H109.28ZM108.439 35.6757L105.405 53.5135H108.209L108.863 49.4133H111.674L112.304 53.5135H115.135L112.143 35.6757H108.439Z" fill="#EAE2C1"/>
<path fill-rule="evenodd" clip-rule="evenodd" d="M128.531 47.6636L124.788 35.6757H121.622V53.5135H124.442V42.0909L128.322 53.5135H131.351V35.6757H128.531V47.6636Z" fill="#EAE2C1"/>
<path fill-rule="evenodd" clip-rule="evenodd" d="M145.056 49.3029C145.056 49.7204 144.915 50.0829 144.633 50.3913C144.35 50.6992 144.005 50.8536 143.596 50.8536H142.04V38.4212H143.596C143.996 38.4212 144.34 38.5731 144.626 38.8764C144.913 39.1797 145.056 39.5452 145.056 39.9714V49.3029ZM143.514 35.6757H139.459V53.5135H143.514C144.633 53.5135 145.588 53.096 146.38 52.2616C147.172 51.4276 147.568 50.4219 147.568 49.2464V39.9291C147.568 38.7622 147.174 37.7621 146.387 36.9276C145.6 36.0932 144.642 35.6757 143.514 35.6757Z" fill="#EAE2C1"/>
<path fill-rule="evenodd" clip-rule="evenodd" d="M154.054 53.5135H162.162V50.8108H156.902V45.9462H160.746V43.243H156.902V38.3784H162.162V35.6757H154.054V53.5135Z" fill="#EAE2C1"/>
<path fill-rule="evenodd" clip-rule="evenodd" d="M173.905 42.5802C173.905 43.0072 173.771 43.3725 173.502 43.6766C173.233 43.9801 172.907 44.1321 172.524 44.1321H171.066V38.4234H172.524C173.444 38.4234 173.905 38.9407 173.905 39.9748V42.5802ZM176.258 42.5231V39.9325C176.258 38.6418 175.981 37.6357 175.427 36.9143C174.796 36.0884 173.807 35.6757 172.46 35.6757H168.649V53.5135H171.066V46.7942H172.46C172.537 46.7942 172.609 46.7942 172.677 46.7942L174.143 53.5135H176.757L174.967 45.7264C175.828 44.8535 176.258 43.7852 176.258 42.5231Z" fill="#EAE2C1"/>
<path fill-rule="evenodd" clip-rule="evenodd" d="M183.243 38.3806H186.006V53.5135H188.603V38.3806H191.351V35.6757H183.243V38.3806Z" fill="#EAE2C1"/>
<path fill-rule="evenodd" clip-rule="evenodd" d="M203.579 43.5739H200.529V36H198V53.8378H200.529V46.2782H203.579V53.8378H206.108V36H203.579V43.5739Z" fill="#EAE2C1"/>
<path fill-rule="evenodd" clip-rule="evenodd" d="M216.308 46.7942L217.305 39.7616L218.302 46.7942H216.308ZM215.467 35.6757L212.432 53.5135H215.236L215.89 49.4133H218.702L219.331 53.5135H222.162L219.171 35.6757H215.467Z" fill="#EAE2C1"/>
<path fill-rule="evenodd" clip-rule="evenodd" d="M232.651 35.6757H230.27V53.5135H236.757V50.8372H232.651V35.6757Z" fill="#EAE2C1"/>
<path fill-rule="evenodd" clip-rule="evenodd" d="M250.988 47.3037C250.893 47.0538 250.767 46.7804 250.611 46.4837C250.283 45.8544 249.815 45.2152 249.21 44.567C249.029 44.3633 248.653 44.0069 248.082 43.4971C247.597 43.0714 247.234 42.7005 246.992 42.3858C246.352 41.5614 246.032 40.7514 246.032 39.9543C246.032 39.445 246.127 39.0193 246.318 38.6763C246.551 38.2506 246.893 38.037 247.342 38.037C247.766 38.037 248.09 38.1809 248.315 38.4682C248.627 38.866 248.817 39.4221 248.886 40.135L251.234 39.6765C251.174 38.9172 250.994 38.2456 250.696 37.6621C250.398 37.0786 250.006 36.6251 249.522 36.3005C248.899 35.8838 248.151 35.6757 247.278 35.6757C246.37 35.6757 245.608 35.9211 244.994 36.4125C244 37.228 243.503 38.4288 243.503 40.014C243.503 40.8947 243.684 41.7102 244.047 42.4615C244.385 43.1286 244.96 43.8844 245.772 44.7278C246.741 45.7105 247.467 46.4474 247.952 46.9388C248.566 47.6527 248.873 48.3711 248.873 49.094C248.873 49.5949 248.791 49.9792 248.627 50.248C248.307 50.7952 247.879 51.078 247.342 51.0964C246.962 51.1148 246.624 50.952 246.331 50.6075C245.933 50.1515 245.682 49.4161 245.578 48.401L243.243 48.5822C243.295 49.5077 243.474 50.3302 243.781 51.0476C244.088 51.7655 244.505 52.3326 245.033 52.7498C245.664 53.2591 246.46 53.5135 247.42 53.5135C247.939 53.5135 248.393 53.4488 248.782 53.3193C249.509 53.0784 250.071 52.6667 250.469 52.0827C251.074 51.2214 251.368 50.1843 251.351 48.9705C251.342 48.4801 251.221 47.924 250.988 47.3037Z" fill="#EAE2C1"/>
<path fill-rule="evenodd" clip-rule="evenodd" d="M9.10372 0H0V60H27.5676V50.9973H9.10372V0Z" fill="#EAE2C1"/>
<path fill-rule="evenodd" clip-rule="evenodd" d="M60.1843 26.4846C58.8852 25.4785 51.0907 20.5915 53.5446 17.7171C55.9985 14.8422 58.8852 9.09334 55.2765 8.80576C51.6679 8.51817 48.2036 4.9248 45.317 0.75673C45.1381 0.498192 44.9518 0.245949 44.7598 0H40.0888V0.917468L40.0406 39.2517C39.9779 39.4032 39.9132 39.5538 39.8413 39.7005L28.0123 0.122975H17.8378V42.0225H26.9003V21.6576L39.3682 60H49.1026V59.9884C49.7814 59.9637 50.4582 59.8823 51.1155 59.7129C55.0626 58.6942 57.218 55.9597 56.8645 54.0812C56.4313 51.7815 58.7408 50.3446 58.7408 49.4818C58.7408 48.6195 62.4938 48.6195 62.205 46.3198C61.9162 44.0201 60.4731 44.5952 60.4731 44.5952C60.4731 44.5952 61.4835 42.8702 61.3391 42.2955C61.237 41.8893 59.2644 39.4061 58.1136 37.9808C57.7154 37.4879 57.9142 36.752 58.5035 36.5167C62.8065 34.7994 62.9494 33.7996 63.2154 31.9468C63.5042 29.9342 61.4835 27.4906 60.1843 26.4846Z" fill="#EAE2C1"/>
</svg>
