<svg width="33" height="33" viewBox="0 0 33 33" fill="none" xmlns="http://www.w3.org/2000/svg">
<path fill-rule="evenodd" clip-rule="evenodd" d="M16.799 0.5C16.799 0.33274 16.7965 0.166062 16.7916 0H16.8064C16.8015 0.166062 16.799 0.33274 16.799 0.5ZM0.29899 17C9.41169 17 16.799 9.6127 16.799 0.5C16.799 9.51283 24.0253 16.8379 33 16.9973V17.0027C24.1921 17.1592 17.0683 24.2173 16.8064 32.9991H16.7915C16.5267 24.1181 9.24413 17 0.29899 17ZM0 17.0027C0.0994512 17.0009 0.199117 17 0.29899 17C0.199117 17 0.0994512 16.9991 0 16.9973V17.0027Z" fill="black"/>
</svg>
