<svg width="293" height="54" viewBox="0 0 293 54" fill="none" xmlns="http://www.w3.org/2000/svg">
<g filter="url(#filter0_di_401_7276)">
<path d="M31.9278 39.6016L27.2252 45L5 22.7678L27.0013 1.05805L31.8718 6.28232L14.4611 22.7098L31.9278 39.6016Z" fill="#8A8481"/>
<path d="M68.86 22.942L50.6095 44.5356H49.3779L31.3514 22.942L49.3779 1.40633L50.6095 1.40633L68.86 22.942ZM60.0146 22.942L49.9937 10.6939L40.0287 22.942L49.9937 35.248L60.0146 22.942Z" fill="#8A8481"/>
<path d="M110.298 43.1425L103.132 44.6517L98.206 21.6649L91.6 44.1293H89.4726L83.0346 21.6649L77.9961 44.6517L70.8303 43.1425L81.2431 2.04485H83.3145L90.5923 25.7282L97.8141 2.04485H99.8855L110.298 43.1425Z" fill="#8A8481"/>
<path d="M152.012 43.1425L144.846 44.6517L139.92 21.6649L133.314 44.1293H131.186L124.748 21.6649L119.71 44.6517L112.544 43.1425L122.957 2.04485L125.028 2.04485L132.306 25.7282L139.528 2.04485L141.599 2.04485L152.012 43.1425Z" fill="#8A8481"/>
<path d="M181.746 43.6069L156.497 43.6069V2.50924L163.271 2.50924V37.0475H174.972V2.50924L181.746 2.50924V43.6069Z" fill="#8A8481"/>
<path d="M213.224 44.1293H211.209L195.254 20.6781V43.6069H188.48V1.98681L190.495 1.98681L206.45 24.8575V2.50924L213.224 2.50924V44.1293Z" fill="#8A8481"/>
<path d="M227.305 43.6069H220.475V2.50924L227.305 2.50924V43.6069Z" fill="#8A8481"/>
<path d="M257.296 9.24275L248.059 9.24275V43.6069L241.229 43.6069V9.24275H232.048V2.50924L257.296 2.50924V9.24275Z" fill="#8A8481"/>
<path d="M288 4.19261L276.915 27.7018V43.4908H270.085V27.5858L259.001 4.19261L265.551 1L273.5 19.8074L281.506 1L288 4.19261Z" fill="#8A8481"/>
</g>
<defs>
<filter id="filter0_di_401_7276" x="0" y="0" width="293" height="54" filterUnits="userSpaceOnUse" color-interpolation-filters="sRGB">
<feFlood flood-opacity="0" result="BackgroundImageFix"/>
<feColorMatrix in="SourceAlpha" type="matrix" values="0 0 0 0 0 0 0 0 0 0 0 0 0 0 0 0 0 0 127 0" result="hardAlpha"/>
<feOffset dy="4"/>
<feGaussianBlur stdDeviation="2.5"/>
<feComposite in2="hardAlpha" operator="out"/>
<feColorMatrix type="matrix" values="0 0 0 0 0.905882 0 0 0 0 0.878431 0 0 0 0 0.870588 0 0 0 1 0"/>
<feBlend mode="normal" in2="BackgroundImageFix" result="effect1_dropShadow_401_7276"/>
<feBlend mode="normal" in="SourceGraphic" in2="effect1_dropShadow_401_7276" result="shape"/>
<feColorMatrix in="SourceAlpha" type="matrix" values="0 0 0 0 0 0 0 0 0 0 0 0 0 0 0 0 0 0 127 0" result="hardAlpha"/>
<feOffset dy="3"/>
<feGaussianBlur stdDeviation="2"/>
<feComposite in2="hardAlpha" operator="arithmetic" k2="-1" k3="1"/>
<feColorMatrix type="matrix" values="0 0 0 0 0 0 0 0 0 0 0 0 0 0 0 0 0 0 0.52 0"/>
<feBlend mode="normal" in2="shape" result="effect2_innerShadow_401_7276"/>
</filter>
</defs>
</svg>
