<svg width="60" height="61" viewBox="0 0 60 61" fill="none" xmlns="http://www.w3.org/2000/svg">
<path fill-rule="evenodd" clip-rule="evenodd" d="M59.9952 17.5298C59.8926 18.6178 59.3281 19.5504 58.5071 20.1722L52.0415 24.7316C53.8888 26.5969 53.8888 29.6538 52.0415 31.5708C51.1178 32.5034 49.8863 32.9697 48.706 32.9697C47.9876 32.9697 47.2179 32.8143 46.5508 32.4516C44.8574 34.7313 39.9313 41.3633 31.8236 49.6014C28.796 52.6583 25.5632 55.6634 22.1252 58.4094C19.97 60.171 17.353 61 14.6846 61C11.0926 61 7.34665 59.4456 4.42173 56.4924C-0.658388 51.3112 -1.47942 43.5394 2.57442 38.4618C5.29408 35.0422 8.219 31.7263 11.2465 28.6175C19.3542 20.3276 25.8711 15.3537 28.1803 13.6957C27.2566 11.8823 27.5645 9.60255 29.0526 8.10001C30.8999 6.23478 33.9275 6.23478 35.7748 8.10001L40.1878 1.5717C40.8036 0.690898 41.7273 0.120966 42.7536 0.0173424C43.7798 -0.0862815 44.8061 0.276402 45.5758 1.05358L58.9689 14.6801C59.6873 15.4055 60.0465 16.4417 59.9952 17.5298ZM34.2867 9.60255C33.2091 8.5145 31.5157 8.5145 30.4894 9.60255C29.4118 10.6906 29.4118 12.4004 30.4894 13.4884L38.9563 22.1929C39.3668 22.6073 39.3668 23.2809 38.9563 23.6436C38.5458 24.0581 37.93 24.0581 37.5195 23.6436L29.4118 15.3537C27.3079 16.908 20.8423 21.8302 12.6833 30.1201C12.0676 30.7418 11.4518 31.3636 10.8873 31.9853C13.9662 33.436 18.0714 32.5552 22.3304 31.5708C28.2316 30.2755 34.9025 28.773 39.9826 33.5915C40.3931 34.006 40.3931 34.6277 40.0339 35.0422C39.8286 35.2495 39.5721 35.3531 39.2642 35.3531C39.0076 35.3531 38.751 35.2495 38.5458 35.094C34.2354 31.0009 28.3855 32.2962 22.741 33.5915C18.02 34.6277 13.1965 35.7158 9.39923 33.5397C7.55191 35.5603 5.80722 37.6328 4.11385 39.7571C0.7271 44.0057 1.49682 50.5858 5.85854 55.0416C10.2203 59.4975 16.6859 60.2228 20.8936 56.8032C24.2291 54.0572 27.4106 51.1557 30.4381 48.0988C38.5971 39.8089 43.4206 33.2288 44.9601 31.0527L41.3168 27.374C40.9062 26.9596 40.9062 26.286 41.3168 25.9233C41.7273 25.5088 42.343 25.5088 42.7536 25.9233L46.7561 30.0165C47.8337 31.1045 49.5271 31.1045 50.5533 30.0165C51.6309 28.9284 51.6309 27.2186 50.5533 26.1306L34.2867 9.60255ZM57.5321 16.1309L44.139 2.55613C43.8312 2.24526 43.3693 2.08982 42.9588 2.08982C42.497 2.14163 42.1378 2.34888 41.8812 2.71156L37.2116 9.60255L50.5533 23.1773L57.3268 18.4106C57.686 18.1515 57.9426 17.737 57.9426 17.3225C57.9939 16.908 57.84 16.4417 57.5321 16.1309ZM31.6697 37.0111C31.1052 37.0111 30.6434 36.5448 30.6434 35.9748C30.6434 35.4049 31.1052 34.9386 31.6697 34.9386C32.2341 34.9386 32.6959 35.4049 32.6959 35.9748C32.6959 36.5448 32.2341 37.0111 31.6697 37.0111ZM25.8711 44.2129C25.3067 44.2129 24.8448 43.7466 24.8448 43.1767C24.8448 42.6068 25.3067 42.1405 25.8711 42.1405C26.4356 42.1405 26.8974 42.6068 26.8974 43.1767C26.8461 43.7466 26.4356 44.2129 25.8711 44.2129ZM19.3542 53.3836C18.7898 53.3836 18.3279 52.9173 18.3279 52.3474C18.3279 51.7775 18.7898 51.3112 19.3542 51.3112C19.9187 51.3112 20.3805 51.7775 20.3805 52.3474C20.3805 52.9173 19.9187 53.3836 19.3542 53.3836ZM18.7898 40.068C18.2253 40.068 17.7635 39.6017 17.7635 39.0317C17.7635 38.4618 18.2253 37.9955 18.7898 37.9955C19.3542 37.9955 19.816 38.4618 19.816 39.0317C19.816 39.6017 19.3542 40.068 18.7898 40.068ZM16.378 48.0988C15.8135 48.0988 15.3517 47.6325 15.3517 47.0626C15.3517 46.4927 15.8135 46.0264 16.378 46.0264C16.9424 46.0264 17.4043 46.4927 17.4043 47.0626C17.4043 47.6325 16.9424 48.0988 16.378 48.0988ZM10.2203 43.1767C9.6558 43.1767 9.19397 42.7104 9.19397 42.1405C9.19397 41.5705 9.6558 41.1042 10.2203 41.1042C10.7847 41.1042 11.2465 41.5705 11.2465 42.1405C11.2465 42.7104 10.7847 43.1767 10.2203 43.1767ZM7.80848 50.2231C7.24402 50.2231 6.78219 49.7568 6.78219 49.1869C6.78219 48.6169 7.24402 48.1506 7.80848 48.1506C8.37294 48.1506 8.83477 48.6169 8.83477 49.1869C8.83477 49.7568 8.37294 50.2231 7.80848 50.2231Z" fill="url(#paint0_linear_304_1163)"/>
<defs>
<linearGradient id="paint0_linear_304_1163" x1="30" y1="0" x2="30" y2="61" gradientUnits="userSpaceOnUse">
<stop offset="0.0625" stop-color="#FFC46C"/>
<stop offset="1" stop-color="#E07F2E"/>
</linearGradient>
</defs>
</svg>
