<svg width="57" height="49" viewBox="0 0 57 49" fill="none" xmlns="http://www.w3.org/2000/svg">
<path fill-rule="evenodd" clip-rule="evenodd" d="M54.6829 19.6933C56.1195 21.7933 57 24.5467 57 27.72C57 31.2667 55.7951 33.88 54.7293 36.1667C53.9878 37.8 53.2927 39.2 53.1073 40.7867C54.2659 41.1133 55.1463 42.1867 55.1463 43.4467V46.2467C55.1463 47.74 53.9415 49 52.4122 49H4.5878C3.10488 49 1.85366 47.7867 1.85366 46.2467V43.4467C1.85366 42.1867 2.73415 41.1133 3.89268 40.7867C3.70732 39.2467 3.05854 37.8 2.27073 36.2133C1.20488 33.9267 0 31.3133 0 27.72C0 24.5467 0.834146 21.7933 2.31707 19.6933C0.973171 19.2733 0 18.0133 0 16.5667C0 14.7467 1.48293 13.3 3.2439 13.3C4.9122 13.3 6.30244 14.6067 6.4878 16.24C7.6 15.7733 8.80488 15.54 10.0561 15.54C11.9098 15.54 13.439 16.0067 14.6439 16.94C14.7829 16.8 14.922 16.66 15.1073 16.5667C14.4585 15.96 14.0415 15.0733 14.0415 14.14C14.0415 12.32 15.5244 10.8733 17.2854 10.8733C19.0927 10.8733 20.5293 12.3667 20.5293 14.14C20.5293 14.7467 20.3439 15.3067 20.0659 15.7733C21.5024 16.1 23.1707 16.8933 24.3293 18.62C24.4683 16.3333 24.7 14.5133 24.839 13.3467C24.9317 12.6933 25.1634 12.1333 25.5341 11.7133L23.8659 10.3133C23.5415 10.0333 23.4488 9.56667 23.6341 9.19333L27.5732 0.56C27.8049 0.233333 28.1293 0 28.5 0C28.8707 0 29.1951 0.233333 29.3341 0.56L33.2732 9.19333C33.4585 9.56667 33.3659 10.0333 33.0415 10.3133L31.3732 11.7133C31.7439 12.1333 32.0219 12.6933 32.0683 13.3467C32.2073 14.5133 32.439 16.3333 32.578 18.62C33.7829 16.8933 35.4049 16.1 36.8415 15.7733C36.5634 15.3067 36.378 14.7467 36.378 14.14C36.378 12.32 37.861 10.8733 39.622 10.8733C41.4293 10.8733 42.8659 12.3667 42.8659 14.14C42.8659 15.12 42.4488 15.96 41.8 16.5667C41.939 16.7067 42.1244 16.8 42.2634 16.94C43.4683 16.0067 45.0439 15.54 46.8512 15.54C48.1488 15.54 49.3537 15.7733 50.4195 16.24C50.6049 14.6067 51.9951 13.3 53.6634 13.3C55.4707 13.3 56.9073 14.7933 56.9073 16.5667C57 18.06 56.0268 19.2733 54.6829 19.6933ZM3.2439 15.1667C2.4561 15.1667 1.85366 15.82 1.85366 16.5667C1.85366 17.36 2.50244 17.9667 3.2439 17.9667C4.03171 17.9667 4.63415 17.3133 4.63415 16.5667C4.68049 15.7733 4.03171 15.1667 3.2439 15.1667ZM10.1024 17.4067C5.23659 17.4067 1.85366 21.6533 1.85366 27.72C1.85366 30.8467 2.91951 33.18 3.98537 35.3733C4.81951 37.1 5.56098 38.78 5.74634 40.6933H13.7171C13.578 39.1067 13.161 37.66 12.6976 36.0267C12.0488 33.74 11.261 31.1733 11.261 27.72C11.261 23.8 12.0951 20.5333 13.4854 18.34C12.6049 17.6867 11.539 17.4067 10.1024 17.4067ZM17.2854 12.6933C16.4976 12.6933 15.8951 13.3467 15.8951 14.0933C15.8951 14.8867 16.5439 15.4933 17.2854 15.4933C18.0732 15.4933 18.6756 14.84 18.6756 14.0933C18.6756 13.3467 18.0732 12.6933 17.2854 12.6933ZM24.1439 25.9933C24.1439 25.34 24.1439 24.7333 24.1439 24.1267C23.8659 18.5733 20.6683 17.4067 18.0268 17.4067C15.2463 17.4067 13.161 21.84 13.161 27.7667C13.161 30.9867 13.8561 33.32 14.5049 35.56C15.0146 37.2867 15.478 38.8733 15.6171 40.74H25.0244C24.7927 37.94 24.1439 30.38 24.1439 25.9933ZM28.5 3.17333L25.7195 9.28667L27.4805 10.78H29.5195L31.2805 9.28667L28.5 3.17333ZM25.9976 25.9933C25.9976 30.3333 26.6927 38.1267 26.9244 40.6933H30.122C30.3537 38.1267 31.0488 30.3333 31.0488 25.9933C31.0488 20.3 30.5854 15.7733 30.3073 13.58C30.2146 13.02 29.8902 12.6933 29.6122 12.6933H27.4341C27.1561 12.6933 26.8317 13.02 26.739 13.58C26.461 15.7733 25.9976 20.3 25.9976 25.9933ZM4.5878 42.6067C4.12439 42.6067 3.70732 42.98 3.70732 43.4933V46.2933C3.70732 46.76 4.07805 47.18 4.5878 47.18H52.4122C52.8756 47.18 53.2927 46.8067 53.2927 46.2933V43.4933C53.2927 43.0267 52.922 42.6067 52.4122 42.6067H4.5878ZM39.7146 12.6933C38.9268 12.6933 38.3244 13.3467 38.3244 14.0933C38.3244 14.8867 38.9732 15.4933 39.7146 15.4933C40.5024 15.4933 41.1049 14.84 41.1049 14.0933C41.1049 13.3467 40.5024 12.6933 39.7146 12.6933ZM38.9732 17.4067C36.2854 17.4067 33.1341 18.62 32.8561 24.1267C32.8561 24.7333 32.8561 25.34 32.8561 25.9933C32.8561 30.38 32.2073 37.94 31.9293 40.6933H41.3829C41.522 38.8267 41.9854 37.24 42.4951 35.5133C43.1439 33.2733 43.839 30.94 43.839 27.72C43.8854 21.84 41.7537 17.4067 38.9732 17.4067ZM46.8976 17.4067C45.5073 17.4067 44.3951 17.7333 43.5146 18.3867C44.9049 20.58 45.739 23.8467 45.739 27.7667C45.739 31.2667 44.9976 33.8333 44.3024 36.0733C43.839 37.7067 43.422 39.1533 43.2829 40.74H51.2537C51.439 38.8267 52.2268 37.1467 53.0146 35.42C54.0341 33.18 55.1463 30.8933 55.1463 27.7667C55.1463 21.6533 51.7634 17.4067 46.8976 17.4067ZM53.7098 15.1667C52.922 15.1667 52.3195 15.82 52.3195 16.5667C52.3195 17.36 52.9683 17.9667 53.7098 17.9667C54.4976 17.9667 55.1 17.3133 55.1 16.5667C55.1463 15.7733 54.4976 15.1667 53.7098 15.1667ZM49.1683 45.6867C48.7049 45.6867 48.3341 45.3133 48.3341 44.8467C48.3341 44.38 48.7049 44.0067 49.1683 44.0067C49.6317 44.0067 50.0024 44.38 50.0024 44.8467C50.0024 45.3133 49.6317 45.6867 49.1683 45.6867ZM43.7927 45.6867C43.3293 45.6867 42.9585 45.3133 42.9585 44.8467C42.9585 44.38 43.3293 44.0067 43.7927 44.0067C44.2561 44.0067 44.6268 44.38 44.6268 44.8467C44.6268 45.3133 44.2561 45.6867 43.7927 45.6867ZM37.9537 45.6867C37.4902 45.6867 37.1195 45.3133 37.1195 44.8467C37.1195 44.38 37.4902 44.0067 37.9537 44.0067C38.4171 44.0067 38.7878 44.38 38.7878 44.8467C38.7878 45.3133 38.4171 45.6867 37.9537 45.6867ZM31.6512 45.6867C31.1878 45.6867 30.8171 45.3133 30.8171 44.8467C30.8171 44.38 31.1878 44.0067 31.6512 44.0067C32.1146 44.0067 32.4854 44.38 32.4854 44.8467C32.4854 45.3133 32.1146 45.6867 31.6512 45.6867ZM25.3488 45.6867C24.8854 45.6867 24.5146 45.3133 24.5146 44.8467C24.5146 44.38 24.8854 44.0067 25.3488 44.0067C25.8122 44.0067 26.1829 44.38 26.1829 44.8467C26.1829 45.3133 25.8122 45.6867 25.3488 45.6867ZM19.0463 45.6867C18.5829 45.6867 18.2122 45.3133 18.2122 44.8467C18.2122 44.38 18.5829 44.0067 19.0463 44.0067C19.5098 44.0067 19.8805 44.38 19.8805 44.8467C19.8805 45.3133 19.5098 45.6867 19.0463 45.6867ZM13.2073 45.6867C12.7439 45.6867 12.3732 45.3133 12.3732 44.8467C12.3732 44.38 12.7439 44.0067 13.2073 44.0067C13.6707 44.0067 14.0415 44.38 14.0415 44.8467C14.0415 45.3133 13.6707 45.6867 13.2073 45.6867ZM7.83171 45.6867C7.36829 45.6867 6.99756 45.3133 6.99756 44.8467C6.99756 44.38 7.36829 44.0067 7.83171 44.0067C8.29512 44.0067 8.66585 44.38 8.66585 44.8467C8.66585 45.3133 8.29512 45.6867 7.83171 45.6867Z" fill="url(#paint0_linear_304_1307)"/>
<defs>
<linearGradient id="paint0_linear_304_1307" x1="28.5" y1="0" x2="28.5" y2="49" gradientUnits="userSpaceOnUse">
<stop offset="0.0625" stop-color="#FFC46C"/>
<stop offset="1" stop-color="#E07F2E"/>
</linearGradient>
</defs>
</svg>
