<svg width="60" height="60" viewBox="0 0 60 60" fill="none" xmlns="http://www.w3.org/2000/svg">
<path fill-rule="evenodd" clip-rule="evenodd" d="M30 60C13.4622 60 0 46.5378 0 30C0 13.4622 13.4622 0 30 0C46.5378 0 60 13.4622 60 30C60 46.5378 46.5378 60 30 60ZM30 2.01681C14.5714 2.01681 2.01681 14.5714 2.01681 30C2.01681 45.4286 14.5714 57.9832 30 57.9832C45.4286 57.9832 57.9832 45.4286 57.9832 30C57.9832 14.5714 45.4286 2.01681 30 2.01681ZM54.958 31.0084H49.1092C48.5546 31.0084 48.1008 30.5546 48.1008 30C48.1008 29.4454 48.5546 28.9916 49.1092 28.9916H54.958C55.5126 28.9916 55.9664 29.4454 55.9664 30C55.9664 30.5546 55.5126 31.0084 54.958 31.0084ZM52.1345 18.4034L47.042 21.3277C46.8908 21.4286 46.6891 21.479 46.5378 21.479C46.1849 21.479 45.8319 21.2773 45.6807 20.9748C45.3782 20.4706 45.5798 19.8655 46.0336 19.6134L51.1261 16.6891C51.6303 16.3866 52.2353 16.5882 52.4874 17.042C52.7899 17.4958 52.5882 18.1008 52.1345 18.4034ZM40.437 13.9664C40.2353 14.2689 39.9328 14.4706 39.5798 14.4706C39.4286 14.4706 39.2269 14.4202 39.0756 14.3193C38.5714 14.0168 38.4202 13.4118 38.7227 12.958L41.6471 7.86555C41.9496 7.36134 42.5546 7.21008 43.0084 7.5126C43.5126 7.81513 43.6639 8.42017 43.3613 8.87395L40.437 13.9664ZM30 11.8992C29.4454 11.8992 28.9916 11.4454 28.9916 10.8908V5.04202C28.9916 4.48739 29.4454 4.03361 30 4.03361C30.5546 4.03361 31.0084 4.48739 31.0084 5.04202V10.8908C31.0084 11.4454 30.5546 11.8992 30 11.8992ZM20.9748 14.3193C20.8235 14.4202 20.6218 14.4706 20.4706 14.4706C20.1176 14.4706 19.7647 14.2689 19.6134 13.9664L16.6387 8.87395C16.3361 8.36975 16.5378 7.76471 16.9916 7.5126C17.4958 7.21008 18.1008 7.41176 18.3529 7.86555L21.2773 12.958C21.5798 13.4118 21.4286 14.0672 20.9748 14.3193ZM13.4622 21.479C13.3109 21.479 13.1092 21.4286 12.958 21.3277L7.86555 18.4034C7.36135 18.1008 7.21008 17.4958 7.51261 17.042C7.81513 16.5378 8.42017 16.3866 8.87395 16.6891L13.9664 19.6134C14.4706 19.916 14.6218 20.521 14.3193 20.9748C14.1176 21.2773 13.8151 21.479 13.4622 21.479ZM11.8992 30C11.8992 30.5546 11.4454 31.0084 10.8908 31.0084H5.04202C4.4874 31.0084 4.03361 30.5546 4.03361 30C4.03361 29.4454 4.4874 28.9916 5.04202 28.9916H10.8908C11.4454 28.9916 11.8992 29.4454 11.8992 30ZM7.86555 41.5966L12.958 38.6723C13.4622 38.3697 14.0672 38.5714 14.3193 39.0252C14.6218 39.5294 14.4202 40.1344 13.9664 40.3866L8.87395 43.3613C8.72269 43.4622 8.52101 43.5126 8.36975 43.5126C8.01681 43.5126 7.66387 43.3109 7.51261 43.0084C7.21008 42.5042 7.41177 41.8992 7.86555 41.5966ZM19.563 46.0336C19.8655 45.5294 20.4706 45.3781 20.9244 45.6807C21.4286 45.9832 21.5798 46.5882 21.2773 47.042L18.3529 52.1345C18.1513 52.437 17.8487 52.6387 17.4958 52.6387C17.3445 52.6387 17.1429 52.5882 16.9916 52.4874C16.4874 52.1849 16.3361 51.5798 16.6387 51.126L19.563 46.0336ZM30 48.1008C30.5546 48.1008 31.0084 48.5546 31.0084 49.1092V54.958C31.0084 55.5126 30.5546 55.9664 30 55.9664C29.4454 55.9664 28.9916 55.5126 28.9916 54.958V49.1092C28.9916 48.5546 29.4454 48.1008 30 48.1008ZM20.1681 42.7563H18.2521C17.6975 42.7563 17.2437 42.3025 17.2437 41.7479V39.8319C15.0756 37.0084 13.8655 33.5294 13.8655 30C13.8655 26.4202 15.0756 22.9412 17.2437 20.1681V18.2521C17.2437 17.6975 17.6975 17.2437 18.2521 17.2437H20.1681C22.9916 15.0756 26.4706 13.8655 30 13.8655C33.5798 13.8655 37.0084 15.0756 39.8319 17.2437H41.7479C42.3025 17.2437 42.7563 17.6975 42.7563 18.2521V20.1681C44.9244 22.9916 46.1345 26.4706 46.1345 30C46.1345 30.9076 46.0336 31.8655 45.8824 32.7731C49.0588 34.3361 51.2773 37.5126 51.4286 41.1933L52.1345 41.5966C52.6387 41.8992 52.7899 42.5042 52.4874 42.958C52.2857 43.2605 51.9832 43.4622 51.6303 43.4622C51.5294 43.4622 51.3782 43.4118 51.2773 43.3613C50.521 47.3445 47.395 50.4706 43.4622 51.2269C43.6134 51.6807 43.4622 52.1849 43.0084 52.437C42.8571 52.5378 42.6555 52.5882 42.5042 52.5882C42.1513 52.5882 41.7983 52.3866 41.6471 52.084L41.2437 51.3781C37.4622 51.2773 34.2857 49.0588 32.7731 45.8824C31.8655 46.0336 30.958 46.1345 30 46.1345C26.4202 46.1345 22.9412 44.9244 20.1681 42.7563ZM17.2437 24C16.3866 25.8655 15.8824 27.9328 15.8824 30C15.8824 32.0672 16.3361 34.1345 17.2437 36V24ZM30 15.8824C27.9328 15.8824 25.8655 16.3361 24 17.2437H36C34.1345 16.3866 32.0672 15.8824 30 15.8824ZM42.7563 24V31.8655C43.1597 31.916 43.563 31.9664 43.9664 32.0672C44.0672 31.3613 44.1176 30.7059 44.1176 30C44.1176 27.9328 43.6134 25.8655 42.7563 24ZM41.5966 49.4118C45.9328 49.4118 49.4118 45.9328 49.4118 41.5966C49.4118 37.2605 45.9328 33.7815 41.5966 33.7815C37.3109 33.7815 33.7815 37.3109 33.7815 41.5966C33.7815 45.8824 37.3109 49.4118 41.5966 49.4118ZM40.7395 31.8151V19.2605H19.2605V40.7395H31.8151C32.2185 36 36 32.2185 40.7395 31.8151ZM31.8655 42.7563H24C25.8655 43.6134 27.9328 44.1176 30 44.1176C30.7059 44.1176 31.4118 44.0672 32.0672 43.9664C31.9664 43.563 31.916 43.1597 31.8655 42.7563ZM33.2269 28.9916C33.7815 28.9916 34.2353 29.4454 34.2353 30C34.2353 30.5546 33.7815 31.0084 33.2269 31.0084C32.6723 31.0084 32.2185 30.5546 32.2185 30C32.2185 29.4454 32.6723 28.9916 33.2269 28.9916ZM30 34.1849C29.4454 34.1849 28.9916 33.7311 28.9916 33.1765C28.9916 32.6218 29.4454 32.1681 30 32.1681C30.5546 32.1681 31.0084 32.6218 31.0084 33.1765C31.0084 33.7311 30.5546 34.1849 30 34.1849ZM30 31.0084C29.4454 31.0084 28.9916 30.5546 28.9916 30C28.9916 29.4454 29.4454 28.9916 30 28.9916C30.5546 28.9916 31.0084 29.4454 31.0084 30C31.0084 30.5546 30.5546 31.0084 30 31.0084ZM30 27.8319C29.4454 27.8319 28.9916 27.3782 28.9916 26.8235C28.9916 26.2689 29.4454 25.8151 30 25.8151C30.5546 25.8151 31.0084 26.2689 31.0084 26.8235C31.0084 27.3782 30.5546 27.8319 30 27.8319ZM26.8235 31.0084C26.2689 31.0084 25.8151 30.5546 25.8151 30C25.8151 29.4454 26.2689 28.9916 26.8235 28.9916C27.3782 28.9916 27.8319 29.4454 27.8319 30C27.8319 30.5546 27.3782 31.0084 26.8235 31.0084ZM41.7479 40.7395C42.3025 40.7395 42.7563 41.1933 42.7563 41.7479C42.7563 42.3025 42.3025 42.7563 41.7479 42.7563C41.1933 42.7563 40.7395 42.3025 40.7395 41.7479C40.7395 41.1933 41.1933 40.7395 41.7479 40.7395Z" fill="url(#paint0_linear_304_1229)"/>
<defs>
<linearGradient id="paint0_linear_304_1229" x1="30" y1="0" x2="30" y2="60" gradientUnits="userSpaceOnUse">
<stop stop-color="#592F0C"/>
<stop offset="1"/>
</linearGradient>
</defs>
</svg>
