<svg width="155" height="37" viewBox="0 0 155 37" fill="none" xmlns="http://www.w3.org/2000/svg">
<path fill-rule="evenodd" clip-rule="evenodd" d="M51 16.3496H48.468V7H47V18H51V16.3496Z" fill="black"/>
<path fill-rule="evenodd" clip-rule="evenodd" d="M58.0044 9.51963L58.6193 13.8564H57.3892L58.0044 9.51963ZM57.1323 15.4716H58.8658L59.2543 18H61L59.1554 7H56.8713L55 18H56.7287L57.1323 15.4716Z" fill="black"/>
<path fill-rule="evenodd" clip-rule="evenodd" d="M66.1039 17.529C66.4932 17.8431 66.9839 18 67.5756 18C67.8958 18 68.1756 17.9604 68.4155 17.8803C68.8635 17.7317 69.2101 17.4778 69.4555 17.1176C69.8287 16.5865 70.0102 15.947 69.9996 15.1985C69.9941 14.8961 69.9196 14.5535 69.7754 14.1706C69.7166 14.0165 69.6395 13.8479 69.5435 13.665C69.3408 13.2769 69.0527 12.8827 68.6798 12.483C68.5674 12.3574 68.3355 12.1376 67.9838 11.8232C67.6848 11.5607 67.4609 11.332 67.3119 11.1379C66.9172 10.6295 66.7199 10.13 66.7199 9.63878C66.7199 9.32471 66.7784 9.06191 66.8959 8.85068C67.0398 8.58788 67.2502 8.45617 67.5277 8.45617C67.7889 8.45617 67.989 8.5452 68.1277 8.72204C68.3198 8.96765 68.4367 9.31028 68.4797 9.74992L69.9276 9.46716C69.8901 8.99897 69.7794 8.58481 69.5954 8.22499C69.4116 7.86517 69.17 7.58548 68.8716 7.3853C68.4877 7.12833 68.0262 7 67.4876 7C66.9278 7 66.4585 7.15136 66.0798 7.45438C65.4667 7.95727 65.16 8.69779 65.16 9.67532C65.16 10.2184 65.272 10.7213 65.4959 11.1846C65.704 11.5963 66.0586 12.062 66.56 12.5821C67.1571 13.1885 67.6051 13.6429 67.9038 13.9456C68.2822 14.3858 68.4714 14.8289 68.4714 15.2746C68.4714 15.5835 68.4209 15.8205 68.3198 15.9863C68.1223 16.3237 67.8582 16.4981 67.5277 16.5094C67.293 16.5211 67.0851 16.4204 66.9037 16.208C66.6583 15.9267 66.5038 15.4733 66.4399 14.8473L65 14.959C65.0318 15.5301 65.1425 16.037 65.3319 16.4794C65.5211 16.9221 65.7786 17.2718 66.1039 17.529Z" fill="black"/>
<path fill-rule="evenodd" clip-rule="evenodd" d="M75.7033 18H77.3049V8.66801H79V7H74V8.66801H75.7033V18Z" fill="black"/>
<path fill-rule="evenodd" clip-rule="evenodd" d="M51.2607 29.3925L48.9526 22H47V33H48.7393V25.9561L51.1318 33H53V22H51.2607V29.3925Z" fill="black"/>
<path fill-rule="evenodd" clip-rule="evenodd" d="M57 33H62V31.3333H58.7566V28.3335H61.1264V26.6665H58.7566V23.6667H62V22H57V33Z" fill="black"/>
<path fill-rule="evenodd" clip-rule="evenodd" d="M67.3892 28.8564L68.0044 24.5196L68.6193 28.8564H67.3892ZM66.871 22L65 33H66.7287L67.1323 30.4716H68.8658L69.2543 33H71L69.1551 22H66.871Z" fill="black"/>
<path fill-rule="evenodd" clip-rule="evenodd" d="M79.2607 29.3925L76.9526 22H75V33H76.7393V25.9561L79.1318 33H81V22H79.2607V29.3925Z" fill="black"/>
<path fill-rule="evenodd" clip-rule="evenodd" d="M89.4513 30.4035C89.4513 30.6609 89.3641 30.8844 89.1903 31.0746C89.016 31.2645 88.803 31.3597 88.5505 31.3597H87.591V23.6931H88.5505C88.7973 23.6931 89.0094 23.7868 89.1861 23.9738C89.3629 24.1608 89.4513 24.3862 89.4513 24.649V30.4035ZM88.5002 22H86V33H88.5002C89.1903 33 89.7795 32.7425 90.2676 32.228C90.756 31.7137 91 31.0935 91 30.3686V24.6229C91 23.9034 90.7572 23.2866 90.2721 22.772C89.7864 22.2575 89.1958 22 88.5002 22Z" fill="black"/>
<path fill-rule="evenodd" clip-rule="evenodd" d="M95 33H100V31.3333H96.7565V28.3335H99.1264V26.6665H96.7565V23.6667H100V22H95V33Z" fill="black"/>
<path fill-rule="evenodd" clip-rule="evenodd" d="M107.241 26.2578C107.241 26.5211 107.159 26.7464 106.993 26.9339C106.827 27.1211 106.626 27.2148 106.39 27.2148H105.491V23.6944H106.39C106.957 23.6944 107.241 24.0134 107.241 24.6511V26.2578ZM108.692 26.2226V24.625C108.692 23.8291 108.522 23.2087 108.18 22.7638C107.791 22.2545 107.181 22 106.35 22H104V33H105.491V28.8564H106.35C106.398 28.8564 106.442 28.8564 106.484 28.8564L107.388 33H109L107.896 28.1979C108.427 27.6597 108.692 27.0009 108.692 26.2226Z" fill="black"/>
<path fill-rule="evenodd" clip-rule="evenodd" d="M113 23.668H114.703V33H116.305V23.668H118V22H113V23.668Z" fill="black"/>
<path fill-rule="evenodd" clip-rule="evenodd" d="M125.441 26.6706H123.559V22H122V33H123.559V28.3383H125.441V33H127V22H125.441V26.6706Z" fill="black"/>
<path fill-rule="evenodd" clip-rule="evenodd" d="M133.39 28.8564L134.004 24.5196L134.62 28.8564H133.39ZM132.871 22L131 33H132.729L133.132 30.4716H134.866L135.254 33H137L135.155 22H132.871Z" fill="black"/>
<path fill-rule="evenodd" clip-rule="evenodd" d="M143.468 22H142V33H146V31.3496H143.468V22Z" fill="black"/>
<path fill-rule="evenodd" clip-rule="evenodd" d="M154.776 29.1706C154.717 29.0165 154.64 28.8479 154.544 28.665C154.341 28.2769 154.053 27.8827 153.68 27.483C153.568 27.3574 153.336 27.1376 152.984 26.8232C152.685 26.5607 152.461 26.332 152.312 26.1379C151.917 25.6295 151.72 25.13 151.72 24.6385C151.72 24.3244 151.778 24.0619 151.896 23.8504C152.04 23.5879 152.25 23.4562 152.528 23.4562C152.789 23.4562 152.989 23.5449 153.128 23.722C153.32 23.9673 153.437 24.3103 153.48 24.7499L154.928 24.4672C154.891 23.999 154.78 23.5848 154.596 23.225C154.412 22.8652 154.17 22.5855 153.872 22.3853C153.488 22.1283 153.026 22 152.488 22C151.928 22 151.458 22.1514 151.08 22.4544C150.466 22.9573 150.16 23.6978 150.16 24.6753C150.16 25.2184 150.272 25.7213 150.496 26.1846C150.704 26.596 151.058 27.062 151.56 27.5821C152.157 28.1882 152.605 28.6426 152.904 28.9456C153.282 29.3858 153.472 29.8289 153.472 30.2746C153.472 30.5835 153.421 30.8205 153.32 30.9863C153.123 31.3237 152.859 31.4981 152.528 31.5094C152.293 31.5208 152.085 31.4204 151.904 31.208C151.658 30.9267 151.504 30.4733 151.44 29.8473L150 29.959C150.032 30.5298 150.142 31.037 150.332 31.4794C150.521 31.9221 150.778 32.2718 151.104 32.529C151.493 32.8431 151.984 33 152.576 33C152.896 33 153.176 32.9601 153.416 32.8803C153.864 32.7317 154.211 32.4778 154.456 32.1176C154.829 31.5865 155.01 30.947 155 30.1985C154.994 29.8961 154.92 29.5532 154.776 29.1706Z" fill="black"/>
<path fill-rule="evenodd" clip-rule="evenodd" d="M5.61396 0H0V37H17V31.4483H5.61396V0Z" fill="black"/>
<path fill-rule="evenodd" clip-rule="evenodd" d="M37.1137 16.3322C36.3125 15.7117 31.506 12.6981 33.0192 10.9255C34.5324 9.15267 36.3125 5.60756 34.0872 5.43022C31.8619 5.25287 29.7256 3.03696 27.9455 0.46665C27.8351 0.307219 27.7203 0.151669 27.6019 0H24.7214V0.565772L24.6917 24.2052C24.653 24.2986 24.6132 24.3915 24.5688 24.482L17.2742 0.0758344H11V25.9139H16.5885V13.3555L24.2771 37H30.28V36.9928C30.6985 36.9776 31.1159 36.9274 31.5212 36.823C33.9553 36.1948 35.2844 34.5085 35.0664 33.3501C34.7993 31.9319 36.2235 31.0458 36.2235 30.5138C36.2235 29.982 38.5379 29.982 38.3598 28.5639C38.1817 27.1457 37.2918 27.5004 37.2918 27.5004C37.2918 27.5004 37.9148 26.4366 37.8258 26.0822C37.7628 25.8317 36.5464 24.3004 35.8367 23.4215C35.5911 23.1175 35.7138 22.6637 36.0772 22.5186C38.7307 21.4596 38.8188 20.8431 38.9828 19.7005C39.1609 18.4594 37.9148 16.9526 37.1137 16.3322Z" fill="black"/>
</svg>
