<svg width="66" height="66" viewBox="0 0 66 66" fill="none" xmlns="http://www.w3.org/2000/svg">
<circle r="32.25" transform="matrix(-1 0 0 1 33 33)" stroke="url(#paint0_linear_304_1274)" stroke-width="1.5"/>
<path fill-rule="evenodd" clip-rule="evenodd" d="M51.4657 18.8204C54.6338 18.7467 56.605 20.8106 56.957 22.9482C57.2386 25.0121 56.1122 26.7074 54.2818 27.592C51.6065 28.4765 45.8336 28.6239 41.5392 28.4765C42.1024 29.361 42.1024 30.8352 42.032 31.5723C41.9616 32.4569 41.68 34.5945 40.4832 35.1105C40.4128 35.1473 40.3424 35.1657 40.272 35.1842C40.2016 35.2026 40.1312 35.221 40.0608 35.2579C40.8352 36.1424 40.8352 38.0589 40.7648 38.7223C40.6944 39.6068 40.4128 41.7444 39.2159 42.2604C38.9343 42.4078 38.5823 42.4815 38.2303 42.5552C38.6527 43.366 38.6527 44.5454 38.5823 45.1351C38.5119 45.9459 38.3007 47.7887 37.1743 48.2309C36.1887 48.5995 35.0623 48.6732 33.7951 48.5995C32.6686 48.6732 29.219 49.0418 22.4605 50H21.8973C20.0023 49.8583 16.8711 48.2179 13.2543 46.3231C13.1088 46.2469 12.9625 46.1703 12.8155 46.0933L9.43627 44.3243C9.08427 44.1032 8.87306 43.6609 9.08427 43.2923C9.29547 42.9238 9.71788 42.7026 10.0699 42.9238L13.4491 44.6928C16.8988 46.5356 20.9117 48.6732 22.2493 48.4521C24.0797 48.1572 25.6285 47.9361 26.9662 47.7887C25.6285 47.4938 24.4317 47.0516 23.4461 46.4619C22.6013 45.9459 22.3197 44.6928 22.3901 43.6609C22.4605 42.4815 23.0237 41.6707 23.8685 41.3759C24.0179 41.3446 24.18 41.3 24.3494 41.2534C24.5791 41.1903 24.8222 41.1234 25.0653 41.081C24.3613 40.8599 23.7277 40.565 23.1645 40.1965C22.1789 39.6068 21.8269 38.1326 21.9677 36.9532C22.1085 35.6264 22.7421 34.6682 23.6573 34.3733C24.4317 34.0785 25.2765 33.9311 26.2621 33.7837C25.6989 33.5625 25.2061 33.3414 24.7133 33.0466C23.7277 32.4569 23.3757 30.9827 23.5165 29.8033C23.5869 29.4347 23.6573 29.1399 23.7277 28.9188C22.5309 29.877 20.4892 31.1301 18.7996 32.0883C18.6588 32.162 18.518 32.162 18.3772 32.162C18.0956 32.0883 17.8844 31.9409 17.7436 31.7198C17.5324 31.3512 17.6732 30.9089 18.0252 30.6878C20.3484 29.361 22.6717 27.8131 23.2349 27.1497C23.4461 26.8549 23.7981 26.7812 24.0797 26.9286C24.9245 27.2971 28.163 26.2652 30.6974 25.0858C30.9086 25.0121 31.1902 25.0121 31.4014 25.1595C34.2175 27.2971 37.0335 26.56 38.5119 25.5281C39.0399 25.1595 39.3529 24.5455 39.4976 23.9064C37.8461 22.3214 35.5263 20.6849 33.5135 19.6312C31.4718 19.5575 29.5006 19.5575 27.811 19.5575C23.1645 19.7049 13.7307 21.4739 10.3515 25.012C10.0699 25.3069 9.57706 25.3069 9.29546 25.012C9.01385 24.7172 9.01385 24.2012 9.29546 23.9064C13.0971 19.926 23.0237 18.0833 27.811 18.0096C31.8375 17.9476 37.4081 18.1985 42.1348 18.4113C43.0277 18.4516 43.8906 18.4904 44.7072 18.5256C47.8753 18.7467 50.4097 18.8204 51.4657 18.8204ZM36.5407 46.6093C36.6111 46.5356 36.8927 45.8722 36.9631 44.8403C37.0301 43.8585 36.8422 43.277 36.7631 43.0324C36.7591 43.0199 36.7553 43.0082 36.7519 42.9975C36.0479 42.5552 34.9215 42.4078 33.6543 42.3341C33.4161 42.3341 33.1779 42.3169 32.9318 42.2991C32.6686 42.2801 32.3964 42.2604 32.1054 42.2604C31.5422 42.2604 30.979 42.2604 30.3454 42.1867C28.0222 42.0393 25.7693 42.1867 24.2205 42.7026C23.9389 42.8501 23.7981 43.2923 23.7277 43.6609C23.7277 44.3243 23.9389 44.914 24.0797 44.9877C25.6285 45.7985 27.5998 46.3882 30.0638 46.5356C30.3707 46.5713 30.6611 46.5897 30.943 46.6076C31.243 46.6266 31.5334 46.645 31.8238 46.683C33.7951 46.9042 35.4847 47.0516 36.5407 46.6093ZM38.4415 40.6388C38.6527 40.565 39.0047 39.7542 39.0751 38.3537C39.1455 37.0269 38.9343 36.2161 38.7231 36.1424C37.8079 35.6264 36.5407 35.479 34.9919 35.3316C34.7186 35.3316 34.4452 35.3142 34.1639 35.2964C33.8655 35.2774 33.558 35.2579 33.2318 35.2579C32.9071 35.2201 32.5639 35.2017 32.2117 35.1828C31.8766 35.1648 31.5334 35.1464 31.1902 35.1105C28.3742 34.8893 25.7693 35.1842 23.9389 35.7738C23.5165 35.9213 23.3757 36.511 23.3053 37.0269C23.2349 37.8377 23.4461 38.5749 23.7277 38.7223C25.4877 39.7542 27.8814 40.4176 30.7678 40.6388C31.4718 40.6388 32.1758 40.7125 32.8094 40.7862C35.1327 41.0073 37.1743 41.1547 38.4415 40.6388ZM39.7088 33.4888C39.8496 33.4151 40.2016 32.5306 40.272 31.2038C40.3424 29.877 40.1312 29.0662 40.0608 28.9188C39.1455 28.4028 37.8783 28.2554 36.3999 28.1079C36.1266 28.1079 35.8533 28.0906 35.5719 28.0727C35.2735 28.0538 34.966 28.0342 34.6399 28.0342C34.2879 27.9974 33.9535 27.9789 33.6191 27.9605C33.2846 27.9421 32.9502 27.9237 32.5982 27.8868C29.923 27.6657 27.3182 27.9605 25.5581 28.5502C25.2061 28.6976 24.9949 29.1399 24.9245 29.8033C24.8541 30.7615 25.1357 31.4249 25.3469 31.5723C27.107 32.678 29.4302 33.2677 32.2462 33.4888C32.8798 33.4888 33.5839 33.5625 34.2175 33.6362C36.4703 33.8574 38.4415 34.0048 39.7088 33.4888ZM39.6384 26.6337C43.9328 26.9286 50.9025 26.7812 53.5778 25.8966C54.9858 25.4544 55.6898 24.4224 55.4082 23.243C55.197 21.7688 53.789 20.3683 51.3953 20.3683C50.5916 20.3683 49.0708 20.2933 47.1145 20.1967C46.3292 20.1579 45.4738 20.1157 44.5664 20.0735C42.1728 19.9261 39.2863 19.7786 36.4703 19.7049C38.1599 20.8843 39.568 21.9163 40.4832 22.8008C41.2576 23.5379 41.2576 24.7173 40.4128 25.8229C40.2016 26.1178 39.92 26.4126 39.6384 26.6337Z" fill="url(#paint1_linear_304_1274)"/>
<defs>
<linearGradient id="paint0_linear_304_1274" x1="33" y1="0" x2="33" y2="66" gradientUnits="userSpaceOnUse">
<stop offset="0.0625" stop-color="#E07F2E"/>
<stop offset="0.494792" stop-color="#592F0C"/>
<stop offset="0.80102"/>
</linearGradient>
<linearGradient id="paint1_linear_304_1274" x1="33" y1="18" x2="33" y2="50" gradientUnits="userSpaceOnUse">
<stop offset="0.0625" stop-color="#E07F2E"/>
<stop offset="0.494792" stop-color="#592F0C"/>
<stop offset="0.80102"/>
</linearGradient>
</defs>
</svg>
