<svg width="66" height="66" viewBox="0 0 66 66" fill="none" xmlns="http://www.w3.org/2000/svg">
<circle cx="33" cy="33" r="32.25" stroke="url(#paint0_linear_304_1271)" stroke-width="1.5"/>
<path fill-rule="evenodd" clip-rule="evenodd" d="M14.5343 18.8204C11.3662 18.7467 9.39498 20.8106 9.04298 22.9482C8.76137 25.0121 9.88779 26.7074 11.7182 27.592C14.3935 28.4765 20.1664 28.6239 24.4608 28.4765C23.8976 29.361 23.8976 30.8352 23.968 31.5723C24.0384 32.4569 24.32 34.5945 25.5168 35.1105C25.5872 35.1473 25.6576 35.1657 25.728 35.1842C25.7984 35.2026 25.8688 35.221 25.9392 35.2579C25.1648 36.1424 25.1648 38.0589 25.2352 38.7223C25.3056 39.6068 25.5872 41.7444 26.7841 42.2604C27.0657 42.4078 27.4177 42.4815 27.7697 42.5552C27.3473 43.366 27.3473 44.5454 27.4177 45.1351C27.4881 45.9459 27.6993 47.7887 28.8257 48.2309C29.8113 48.5995 30.9377 48.6732 32.2049 48.5995C33.3314 48.6732 36.781 49.0418 43.5395 50H44.1027C45.9977 49.8583 49.1289 48.2179 52.7457 46.3231C52.8912 46.2469 53.0375 46.1703 53.1845 46.0933L56.5637 44.3243C56.9157 44.1032 57.1269 43.6609 56.9157 43.2923C56.7045 42.9238 56.2821 42.7026 55.9301 42.9238L52.5509 44.6928C49.1012 46.5356 45.0883 48.6732 43.7507 48.4521C41.9203 48.1572 40.3715 47.9361 39.0338 47.7887C40.3715 47.4938 41.5683 47.0516 42.5539 46.4619C43.3987 45.9459 43.6803 44.6928 43.6099 43.6609C43.5395 42.4815 42.9763 41.6707 42.1315 41.3759C41.9821 41.3446 41.82 41.3 41.6506 41.2534C41.4209 41.1903 41.1778 41.1234 40.9347 41.081C41.6387 40.8599 42.2723 40.565 42.8355 40.1965C43.8211 39.6068 44.1731 38.1326 44.0323 36.9532C43.8915 35.6264 43.2579 34.6682 42.3427 34.3733C41.5683 34.0785 40.7235 33.9311 39.7379 33.7837C40.3011 33.5625 40.7939 33.3414 41.2867 33.0466C42.2723 32.4569 42.6243 30.9827 42.4835 29.8033C42.4131 29.4347 42.3427 29.1399 42.2723 28.9188C43.4691 29.877 45.5108 31.1301 47.2004 32.0883C47.3412 32.162 47.482 32.162 47.6228 32.162C47.9044 32.0883 48.1156 31.9409 48.2564 31.7198C48.4676 31.3512 48.3268 30.9089 47.9748 30.6878C45.6516 29.361 43.3283 27.8131 42.7651 27.1497C42.5539 26.8549 42.2019 26.7812 41.9203 26.9286C41.0755 27.2971 37.837 26.2652 35.3026 25.0858C35.0914 25.0121 34.8098 25.0121 34.5986 25.1595C31.7825 27.2971 28.9665 26.56 27.4881 25.5281C26.9601 25.1595 26.6471 24.5455 26.5024 23.9064C28.1539 22.3214 30.4737 20.6849 32.4865 19.6312C34.5282 19.5575 36.4994 19.5575 38.189 19.5575C42.8355 19.7049 52.2693 21.4739 55.6485 25.012C55.9301 25.3069 56.4229 25.3069 56.7045 25.012C56.9861 24.7172 56.9861 24.2012 56.7045 23.9064C52.9029 19.926 42.9763 18.0833 38.189 18.0096C34.1625 17.9476 28.5919 18.1985 23.8652 18.4113C22.9723 18.4516 22.1094 18.4904 21.2928 18.5256C18.1247 18.7467 15.5903 18.8204 14.5343 18.8204ZM29.4593 46.6093C29.3889 46.5356 29.1073 45.8722 29.0369 44.8403C28.9699 43.8585 29.1578 43.277 29.2369 43.0324C29.2409 43.0199 29.2447 43.0082 29.2481 42.9975C29.9521 42.5552 31.0785 42.4078 32.3457 42.3341C32.5839 42.3341 32.8221 42.3169 33.0682 42.2991C33.3314 42.2801 33.6036 42.2604 33.8946 42.2604C34.4578 42.2604 35.021 42.2604 35.6546 42.1867C37.9778 42.0393 40.2307 42.1867 41.7795 42.7026C42.0611 42.8501 42.2019 43.2923 42.2723 43.6609C42.2723 44.3243 42.0611 44.914 41.9203 44.9877C40.3715 45.7985 38.4002 46.3882 35.9362 46.5356C35.6293 46.5713 35.3389 46.5897 35.057 46.6076C34.757 46.6266 34.4666 46.645 34.1762 46.683C32.2049 46.9042 30.5153 47.0516 29.4593 46.6093ZM27.5585 40.6388C27.3473 40.565 26.9953 39.7542 26.9249 38.3537C26.8545 37.0269 27.0657 36.2161 27.2769 36.1424C28.1921 35.6264 29.4593 35.479 31.0081 35.3316C31.2814 35.3316 31.5548 35.3142 31.8361 35.2964C32.1345 35.2774 32.442 35.2579 32.7682 35.2579C33.0929 35.2201 33.4361 35.2017 33.7883 35.1828C34.1234 35.1648 34.4666 35.1464 34.8098 35.1105C37.6258 34.8893 40.2307 35.1842 42.0611 35.7738C42.4835 35.9213 42.6243 36.511 42.6947 37.0269C42.7651 37.8377 42.5539 38.5749 42.2723 38.7223C40.5123 39.7542 38.1186 40.4176 35.2322 40.6388C34.5282 40.6388 33.8242 40.7125 33.1906 40.7862C30.8673 41.0073 28.8257 41.1547 27.5585 40.6388ZM26.2912 33.4888C26.1504 33.4151 25.7984 32.5306 25.728 31.2038C25.6576 29.877 25.8688 29.0662 25.9392 28.9188C26.8545 28.4028 28.1217 28.2554 29.6001 28.1079C29.8734 28.1079 30.1467 28.0906 30.4281 28.0727C30.7265 28.0538 31.034 28.0342 31.3601 28.0342C31.7121 27.9974 32.0465 27.9789 32.3809 27.9605C32.7154 27.9421 33.0498 27.9237 33.4018 27.8868C36.077 27.6657 38.6818 27.9605 40.4419 28.5502C40.7939 28.6976 41.0051 29.1399 41.0755 29.8033C41.1459 30.7615 40.8643 31.4249 40.6531 31.5723C38.893 32.678 36.5698 33.2677 33.7538 33.4888C33.1202 33.4888 32.4161 33.5625 31.7825 33.6362C29.5297 33.8574 27.5585 34.0048 26.2912 33.4888ZM26.3616 26.6337C22.0672 26.9286 15.0975 26.7812 12.4222 25.8966C11.0142 25.4544 10.3102 24.4224 10.5918 23.243C10.803 21.7688 12.211 20.3683 14.6047 20.3683C15.4084 20.3683 16.9292 20.2933 18.8855 20.1967C19.6708 20.1579 20.5262 20.1157 21.4336 20.0735C23.8272 19.9261 26.7137 19.7786 29.5297 19.7049C27.8401 20.8843 26.432 21.9163 25.5168 22.8008C24.7424 23.5379 24.7424 24.7173 25.5872 25.8229C25.7984 26.1178 26.08 26.4126 26.3616 26.6337Z" fill="url(#paint1_linear_304_1271)"/>
<defs>
<linearGradient id="paint0_linear_304_1271" x1="33" y1="0" x2="33" y2="66" gradientUnits="userSpaceOnUse">
<stop offset="0.0625" stop-color="#E07F2E"/>
<stop offset="0.494792" stop-color="#592F0C"/>
<stop offset="0.80102"/>
</linearGradient>
<linearGradient id="paint1_linear_304_1271" x1="33" y1="18" x2="33" y2="50" gradientUnits="userSpaceOnUse">
<stop offset="0.0625" stop-color="#E07F2E"/>
<stop offset="0.494792" stop-color="#592F0C"/>
<stop offset="0.80102"/>
</linearGradient>
</defs>
</svg>
