<svg width="190" height="189" viewBox="0 0 190 189" fill="none" xmlns="http://www.w3.org/2000/svg">
<path fill-rule="evenodd" clip-rule="evenodd" d="M82.4249 3.47101C82.2953 2.61701 82.1546 1.76738 82.0032 0.922253L82.0778 0.911028C82.1818 1.76329 82.2975 2.61667 82.4249 3.47101ZM82.4628 3.72266C90.2659 55.1129 137.762 90.6697 189.094 83.9173L189.099 83.9505C139.051 92.4372 104.498 138.709 110.395 188.97L110.293 188.985C101.032 138.651 53.4317 104.393 2.45196 112.025C54.4237 104.161 90.2168 55.7045 82.4628 3.72266ZM0.591404 112.322C1.15879 112.225 1.72816 112.134 2.29949 112.048C1.72802 112.133 1.15698 112.213 0.586417 112.288L0.591404 112.322Z" fill="#E17F2E"/>
</svg>
