<svg width="34" height="33" viewBox="0 0 34 33" fill="none" xmlns="http://www.w3.org/2000/svg">
<path fill-rule="evenodd" clip-rule="evenodd" d="M16.9999 0.5C16.9999 0.33274 16.9974 0.166062 16.9925 0H17.0073C17.0024 0.166062 16.9999 0.33274 16.9999 0.5ZM0.499918 17C9.61262 17 16.9999 9.6127 16.9999 0.5C16.9999 9.51283 24.2262 16.8379 33.2009 16.9973V17.0027C24.393 17.1592 17.2692 24.2173 17.0074 32.9991H16.9925C16.7277 24.1181 9.44506 17 0.499918 17ZM0.200928 17.0027C0.300379 17.0009 0.400045 17 0.499918 17C0.400045 17 0.300379 16.9991 0.200928 16.9973V17.0027Z" fill="#E17F2E"/>
</svg>
